PathFileType	4	(X/Y/Z)	OpenSim_Sub01_CSBaseline_Gyro.trc
DataRate	CameraRate	NumFrames	NumMarkers	Units	OrigDataRate	OrigDataStartFrame	OrigNumFrames
100	100	33	8	m	100	744	5950
Frame#	Time	torso_imu_offset_imu	pelvis_imu_offset_imu	tibia_r_imu_offset_imu	femur_r_imu_offset_imu	tibia_l_imu_offset_imu	femur_l_imu_offset_imu	toes_r_imu_offset_imu	toes_l_imu_offset_imu
				X1	Y1	Z1	X2	Y2	Z2	X3	Y3	Z3	X4	Y4	Z4	X5	Y5	Z5	X6	Y6	Z6	X7	Y7	Z7	X8		Y8	Z8	

744	7.43000000	-0.24065913	-0.02428286	-0.06595646	-0.45734571	-0.11062657	0.02768760	-0.23715259	-0.17311465	-0.93196580	0.14776476	-0.03159316	-0.64984227	-0.93294156	-0.48581154	-4.00555249	-0.18744366	-0.26968639	0.62385443	-0.19093025	-0.69446560	-0.19071935	0.14260568	3.69708864	-1.86456164
745	7.44000000	-0.26086934	-0.00564894	-0.08323644	-0.44316149	-0.13017335	0.01820281	-0.19764043	-0.17011406	-0.95762021	0.09019916	-0.05330540	-0.61533696	-0.91596346	-0.50362874	-3.77065431	-0.21252221	-0.20385317	0.57946626	-0.20044198	-0.74613722	-0.20880505	0.07406479	3.42680812	-2.12178829
746	7.45000000	-0.27483401	0.01360926	-0.10310073	-0.42235630	-0.15022033	0.00871601	-0.18638265	-0.16372850	-0.99212055	0.05682515	-0.07076534	-0.58542006	-0.89773142	-0.50263471	-3.50844349	-0.17717583	-0.14660723	0.48798035	-0.21199017	-0.80427039	-0.22385495	0.02709389	3.11293236	-2.33198812
747	7.46000000	-0.28134929	0.03235950	-0.12489229	-0.39793634	-0.17105410	0.00267365	-0.21517699	-0.15282614	-1.04405088	0.04603396	-0.08074437	-0.56236171	-0.93779946	-0.47170359	-3.22201252	-0.09562904	-0.09676457	0.36397771	-0.22676607	-0.86943420	-0.23278839	0.02797915	2.76612683	-2.44611967
748	7.47000000	-0.28043040	0.04941882	-0.14712446	-0.37998884	-0.19300297	0.00182478	-0.26981398	-0.13479493	-1.10413971	0.04482751	-0.07944099	-0.54079739	-0.97316399	-0.44870868	-2.87497614	0.02622102	-0.05058946	0.25560985	-0.24240589	-0.93739405	-0.23766573	0.08948288	2.39724682	-2.40641758
749	7.48000000	-0.27241640	0.06386648	-0.16827330	-0.37746292	-0.21611476	0.00717544	-0.33243918	-0.10747267	-1.16187736	0.03945578	-0.06369924	-0.51487637	-0.92811345	-0.47124805	-2.42850797	0.18075568	-0.00593896	0.21017322	-0.25601679	-1.00380048	-0.24095139	0.21791728	2.01549236	-2.16413189
750	7.49000000	-0.25928684	0.07756015	-0.18758832	-0.37766708	-0.23748329	0.01443197	-0.38389705	-0.07540871	-1.21891267	0.02431514	-0.03782744	-0.48439270	-0.76693870	-0.50563359	-1.87372514	0.33095182	0.01932245	0.21924384	-0.26421024	-1.06982789	-0.24210039	0.37189686	1.61271012	-1.77577008
751	7.50000000	-0.24398162	0.09399050	-0.20477398	-0.35524495	-0.25247555	0.01619483	-0.40432945	-0.04710423	-1.28404515	-0.00136966	-0.01051589	-0.45245821	-0.47776228	-0.47629881	-1.21954214	0.42254952	-0.00436441	0.24149564	-0.26331781	-1.13990032	-0.23881127	0.48193625	1.17050461	-1.35969338
752	7.51000000	-0.22787557	0.11538372	-0.21925545	-0.30628727	-0.25980195	0.00940051	-0.38764555	-0.02948955	-1.36145170	-0.03355949	0.01405791	-0.41962097	-0.09828130	-0.34457331	-0.50314861	0.42443888	-0.08368537	0.22881382	-0.25232816	-1.21654524	-0.23277087	0.48649724	0.66937274	-0.98365897
753	7.52000000	-0.20882380	0.14109744	-0.22982159	-0.27510414	-0.26568279	0.00074987	-0.35849332	-0.02587600	-1.44478867	-0.05761233	0.04191211	-0.38061294	0.22388025	-0.15531950	0.17568962	0.35766094	-0.17395245	0.11888492	-0.23616658	-1.29796453	-0.23461572	0.34258414	0.08763534	-0.60072895
754	7.53000000	-0.18495863	0.17048640	-0.23534881	-0.30671815	-0.27575645	-0.00268782	-0.34388742	-0.03827063	-1.52680357	-0.05945725	0.07970382	-0.33015330	0.33721725	0.03460884	0.71953661	0.25398936	-0.23013102	-0.14013081	-0.22022411	-1.38217238	-0.25498654	0.02092347	-0.58971525	-0.15686356
755	7.54000000	-0.16219066	0.20688226	-0.23650635	-0.38615173	-0.27916372	-0.00367979	-0.35233752	-0.06027039	-1.60555712	-0.04573002	0.12644486	-0.27095395	0.20370883	0.16124676	1.14241923	0.18314985	-0.27536979	-0.47211341	-0.20640719	-1.47128742	-0.29206595	-0.39199695	-1.30577355	0.31508220
756	7.55000000	-0.15098699	0.25593100	-0.23502503	-0.46311376	-0.25539464	-0.01079690	-0.38142251	-0.08053608	-1.68224797	-0.03525411	0.17663162	-0.21042902	-0.14730366	0.15672448	1.52377149	0.23691381	-0.37285086	-0.72567252	-0.19456306	-1.56986789	-0.33670227	-0.74163605	-1.96139707	0.73102877
757	7.56000000	-0.15503164	0.31654477	-0.23348992	-0.50452496	-0.20118938	-0.03283127	-0.42564901	-0.09303640	-1.75885157	-0.04104321	0.22362288	-0.15329343	-0.59814854	0.01466954	1.86969034	0.43441088	-0.54575877	-0.79486391	-0.18377851	-1.68637356	-0.38289494	-0.92338566	-2.49674182	1.01444082
758	7.57000000	-0.16274230	0.37254412	-0.23636146	-0.51672860	-0.15205621	-0.07890126	-0.47298374	-0.10372572	-1.83898602	-0.06279638	0.25836937	-0.09810379	-0.83600804	-0.13396077	2.02075183	0.63205180	-0.72687823	-0.67731659	-0.17150289	-1.83789912	-0.43188588	-0.94601393	-2.94086733	1.10709350
759	7.58000000	-0.16132629	0.40752274	-0.24775918	-0.51036116	-0.14364985	-0.15640193	-0.51234760	-0.11905911	-1.92543077	-0.09826182	0.27362555	-0.04175889	-0.57676925	-0.15413868	1.82669429	0.67628765	-0.83805048	-0.39253845	-0.15465097	-2.04322283	-0.48673717	-0.83938066	-3.32383609	0.96825021
760	7.59000000	-0.14682045	0.42381330	-0.26566322	-0.48531261	-0.15898436	-0.25448166	-0.55164729	-0.13391835	-2.01001281	-0.14364658	0.28413111	0.02735505	-0.10524773	-0.06064359	1.46305206	0.53804416	-0.81441558	-0.04122978	-0.12690594	-2.32644139	-0.55918468	-0.69271778	-3.56187963	0.71213943
761	7.60000000	-0.12048301	0.43477793	-0.28443367	-0.43517660	-0.15016084	-0.35153498	-0.60995661	-0.13638914	-2.07813206	-0.19425466	0.31754023	0.12583892	-0.04031111	0.04352252	1.29669725	0.26173416	-0.59936230	0.22819715	-0.08003044	-2.71471965	-0.66606844	-0.62994042	-3.50452544	0.54390427
762	7.61000000	-0.08629001	0.44850841	-0.29877177	-0.36268756	-0.09903879	-0.42807902	-0.69939111	-0.12115069	-2.12237643	-0.24668773	0.38989977	0.26297429	-0.66911012	0.08719742	1.51373247	-0.09588919	-0.22184306	0.30640030	-0.00278277	-3.22054814	-0.82154865	-0.70266587	-3.09584651	0.56250132
763	7.62000000	-0.05413098	0.46101893	-0.30424429	-0.29115697	-0.05476811	-0.46967719	-0.81621863	-0.09779014	-2.15155751	-0.30046894	0.49098496	0.43156748	-1.52901250	0.07280617	1.89139717	-0.45265752	0.09851217	0.17258970	0.12272696	-3.82358654	-1.03365895	-0.80019527	-2.49279594	0.62733472
764	7.63000000	-0.03408756	0.46656842	-0.29715401	-0.24615660	-0.07043811	-0.46418510	-0.95369342	-0.07787031	-2.17579953	-0.35597966	0.60632620	0.62198409	-2.08881018	0.01469393	2.16781264	-0.73474702	0.13968962	-0.16532285	0.30865484	-4.49177516	-1.30485238	-0.80150874	-1.87264099	0.58124123
765	7.64000000	-0.02996441	0.45816606	-0.28019272	-0.24784914	-0.14581243	-0.41607339	-1.09609536	-0.07252629	-2.19611591	-0.41838024	0.71432869	0.82240582	-2.15668097	-0.05252668	2.24838122	-0.98998178	-0.07858589	-0.52681367	0.49867712	-5.11792809	-1.58852811	-0.70576791	-1.32500224	0.43064210
766	7.65000000	-0.04186755	0.42811395	-0.25981554	-0.31310652	-0.24918322	-0.33962172	-1.22237756	-0.09261605	-2.20816598	-0.49567552	0.78923169	1.01974906	-1.74152652	-0.08245480	2.13735659	-1.33736927	-0.39412547	-0.63015504	0.59615137	-5.55078585	-1.80923980	-0.58292902	-0.88769197	0.27828524
767	7.66000000	-0.07080976	0.37511093	-0.24128504	-0.43761716	-0.34586100	-0.25073340	-1.30455927	-0.14374838	-2.21194308	-0.60124094	0.81316203	1.20580482	-0.96176195	-0.06425771	1.87514916	-1.77338950	-0.67443639	-0.32537926	0.52103199	-5.69084270	-1.91102978	-0.48138849	-0.57634931	0.19013692
768	7.67000000	-0.11993356	0.31214908	-0.22709428	-0.56989828	-0.39541108	-0.16865176	-1.29934197	-0.21982763	-2.21726542	-0.76035312	0.78596599	1.38327710	-0.17436771	-0.06680465	1.57999397	-2.01907807	-0.85739449	0.24057090	0.23146800	-5.55534044	-1.88225668	-0.39939536	-0.35863320	0.14731569
769	7.68000000	-0.19162968	0.25320443	-0.21958398	-0.65697298	-0.36129657	-0.11179979	-1.16882292	-0.31267784	-2.23295126	-0.99312667	0.71090964	1.55583856	0.26449653	-0.15871991	1.36983906	-1.79213238	-0.89863183	0.87941301	-0.28867135	-5.18983793	-1.72718067	-0.32874156	-0.19819105	0.12110561
770	7.69000000	-0.27755241	0.20244527	-0.22339031	-0.69633036	-0.25524544	-0.08546666	-0.95219952	-0.40899568	-2.24377209	-1.24976089	0.60181161	1.72191809	0.34038471	-0.29476730	1.25096012	-1.16054326	-0.83879416	1.39083035	-0.84334349	-4.76914911	-1.55232030	-0.26460671	-0.08427782	0.09978305
771	7.70000000	-0.36303751	0.15825460	-0.24448000	-0.71517086	-0.11742615	-0.08717049	-0.73405227	-0.49242684	-2.22031295	-1.43936244	0.47871044	1.87682958	0.24012903	-0.36282643	1.16383173	-0.39876677	-0.76848730	1.56809395	-1.11248478	-4.54356916	-1.52401024	-0.20418281	-0.02122212	0.08165300
772	7.71000000	-0.43659272	0.11908724	-0.28383508	-0.72815203	0.01865646	-0.10950252	-0.57795322	-0.54103496	-2.13294214	-1.50306593	0.36053171	2.01129767	0.08649607	-0.31083169	1.06494119	0.25614895	-0.73795696	1.35010823	-1.01818145	-4.60063504	-1.70107435	-0.14760852	-0.00645322	0.06601883
773	7.72000000	-0.49398565	0.08372510	-0.33127697	-0.72108816	0.13518611	-0.13428490	-0.49929013	-0.52051666	-1.95195359	-1.45465402	0.26353839	2.10589701	-0.14649968	-0.22264470	0.94840210	0.65657703	-0.70595375	1.00090972	-1.02639753	-4.66254979	-1.90072595	-0.10153940	-0.02157147	0.05412228
774	7.73000000	-0.53240583	0.05115808	-0.37551442	-0.67762329	0.21729428	-0.14288948	-0.50409496	-0.40158358	-1.65641830	-1.31851747	0.20139181	2.14259751	-0.49023936	-0.19142066	0.81560999	0.68806545	-0.62563917	0.80453161	-1.59767504	-4.41114228	-1.92322933	-0.07281148	-0.04665984	0.04736127
775	7.74000000	-0.55358121	0.02206587	-0.40935950	-0.59928659	0.25862939	-0.12708237	-0.56912026	-0.22399537	-1.31612251	-1.12708229	0.16461425	2.13195116	-0.82402125	-0.21638805	0.69057805	0.45373777	-0.52028001	0.79728383	-2.37686400	-3.62175177	-1.73136797	-0.06102108	-0.06824724	0.04603839
776	7.75000000	-0.56190696	-0.00188183	-0.42804997	-0.49816138	0.25789035	-0.08476490	-0.65399165	-0.06818178	-1.05399739	-0.91746683	0.13012830	2.10132445	-0.93793905	-0.24147250	0.61055331	0.18469549	-0.45435403	0.86945400	-2.52975737	-2.12623233	-1.38384269	-0.06149500	-0.07668913	0.04981583
